<svg width="642" height="513" viewBox="0 0 642 513" fill="none" xmlns="http://www.w3.org/2000/svg">
<path d="M55.8649 2.28708C53.3316 3.62042 40.7983 12.0204 27.9983 21.0871C8.5316 34.9538 4.5316 38.4204 2.39826 43.0871C-0.535071 49.6204 -0.801738 53.2204 1.7316 58.9538C3.86493 64.0204 191.598 329.22 197.732 335.62C202.932 341.22 210.398 343.487 217.065 341.754C220.265 340.82 250.932 320.02 297.065 287.087C338.398 257.887 372.398 233.887 372.665 233.887C372.932 233.887 401.065 273.22 435.198 321.22C477.332 380.554 496.665 408.687 495.598 409.354C494.665 409.887 483.732 413.087 471.332 416.687C459.065 420.154 447.065 424.287 444.665 425.754C432.665 433.887 433.332 452.687 445.998 460.154C452.532 463.887 609.332 512.287 615.332 512.287C623.065 512.287 629.332 508.42 632.798 501.22C635.598 495.487 635.865 491.887 638.665 408.687L641.598 322.02L638.532 316.42C636.398 312.42 633.865 309.754 629.998 307.887C622.932 304.554 618.132 304.554 611.332 307.887C605.732 310.687 605.065 311.487 585.332 339.62C579.998 347.22 575.198 353.087 574.798 352.554C574.265 352.02 536.132 298.554 489.865 233.487C432.665 152.954 404.398 114.287 401.198 112.154C397.332 109.487 395.198 109.087 389.198 109.487C381.998 110.02 381.065 110.554 306.798 163.22C265.598 192.554 231.198 216.554 230.532 216.554C229.865 216.554 197.198 171.22 157.865 115.887C118.532 60.5538 84.2649 12.5537 81.5983 9.35375C73.9983 0.153749 64.7983 -2.37958 55.8649 2.28708Z" fill="#F44336"/>
</svg>
