<?xml version="1.0" standalone="no"?>
<!DOCTYPE svg PUBLIC "-//W3C//DTD SVG 20010904//EN"
 "http://www.w3.org/TR/2001/REC-SVG-20010904/DTD/svg10.dtd">
<svg version="1.0" xmlns="http://www.w3.org/2000/svg"
 width="512.000000pt" height="512.000000pt" viewBox="0 0 512.000000 512.000000"
 preserveAspectRatio="xMidYMid meet">

<g transform="translate(0.000000,512.000000) scale(0.100000,-0.100000)"
fill="#000000" stroke="none">
<path d="M570 4482 c-19 -10 -113 -73 -209 -141 -146 -104 -176 -130 -192
-165 -22 -49 -24 -76 -5 -119 16 -38 1424 -2027 1470 -2075 39 -42 95 -59 145
-46 24 7 254 163 600 410 310 219 565 399 567 399 2 0 213 -295 469 -655 316
-445 461 -656 453 -661 -7 -4 -89 -28 -182 -55 -92 -26 -182 -57 -200 -68 -90
-61 -85 -202 10 -258 49 -28 1225 -391 1270 -391 58 0 105 29 131 83 21 43 23
70 44 694 l22 650 -23 42 c-16 30 -35 50 -64 64 -53 25 -89 25 -140 0 -42 -21
-47 -27 -195 -238 -40 -57 -76 -101 -79 -97 -4 4 -290 405 -637 893 -429 604
-641 894 -665 910 -29 20 -45 23 -90 20 -54 -4 -61 -8 -618 -403 -309 -220
-567 -400 -572 -400 -5 0 -250 340 -545 755 -295 415 -552 775 -572 799 -57
69 -126 88 -193 53z"/>
</g>
</svg>
