<svg width="642" height="513" viewBox="0 0 642 513" fill="none" xmlns="http://www.w3.org/2000/svg">
<path d="M55.8654 510.001C53.3321 508.667 40.7988 500.267 27.9988 491.201C8.53209 477.334 4.53208 473.867 2.39875 469.201C-0.534583 462.667 -0.80125 459.067 1.73208 453.334C3.86542 448.267 191.599 183.067 197.732 176.667C202.932 171.067 210.399 168.801 217.065 170.534C220.265 171.467 250.932 192.267 297.066 225.201C338.399 254.401 372.399 278.401 372.666 278.401C372.932 278.401 401.066 239.067 435.199 191.067C477.332 131.734 496.666 103.601 495.599 102.934C494.666 102.401 483.732 99.2005 471.332 95.6005C459.066 92.1338 447.066 88.0005 444.666 86.5338C432.666 78.4005 433.332 59.6005 445.999 52.1338C452.532 48.4005 609.332 0.000488281 615.332 0.000488281C623.066 0.000488281 629.332 3.86716 632.799 11.0672C635.599 16.8005 635.866 20.4005 638.666 103.601L641.599 190.267L638.532 195.867C636.399 199.867 633.866 202.534 629.999 204.401C622.932 207.734 618.132 207.734 611.332 204.401C605.732 201.601 605.066 200.801 585.332 172.667C579.999 165.067 575.199 159.201 574.799 159.734C574.266 160.267 536.132 213.734 489.866 278.801C432.666 359.334 404.399 398.001 401.199 400.134C397.332 402.801 395.199 403.201 389.199 402.801C381.999 402.267 381.066 401.734 306.799 349.067C265.599 319.734 231.199 295.734 230.532 295.734C229.865 295.734 197.199 341.067 157.865 396.401C118.532 451.734 84.2654 499.734 81.5988 502.934C73.9988 512.134 64.7988 514.667 55.8654 510.001Z" fill="#43A047"/>
</svg>
