<?xml version="1.0" standalone="no"?>
<!DOCTYPE svg PUBLIC "-//W3C//DTD SVG 20010904//EN"
 "http://www.w3.org/TR/2001/REC-SVG-20010904/DTD/svg10.dtd">
<svg version="1.0" xmlns="http://www.w3.org/2000/svg"
 width="512.000000pt" height="512.000000pt" viewBox="0 0 512.000000 512.000000"
 preserveAspectRatio="xMidYMid meet">

<g transform="translate(0.000000,512.000000) scale(0.100000,-0.100000)"
fill="#000000" stroke="none">
<path d="M0 2560 l0 -2560 2560 0 2560 0 0 2560 0 2560 -2560 0 -2560 0 0
-2560z m4823 1926 c38 -16 72 -51 86 -89 13 -33 58 -1300 48 -1339 -19 -72
-107 -128 -181 -114 -53 10 -85 43 -202 207 -58 83 -109 148 -112 144 -4 -3
-290 -405 -637 -892 -346 -488 -642 -895 -657 -906 -41 -30 -119 -34 -163 -8
-20 11 -277 192 -572 402 -295 209 -542 383 -548 385 -6 3 -262 -348 -568
-780 -307 -432 -571 -796 -587 -809 -34 -29 -92 -41 -136 -28 -18 5 -116 69
-219 142 -157 112 -191 140 -206 174 -21 45 -24 82 -9 121 6 14 340 490 742
1057 481 676 742 1036 762 1048 20 12 50 19 82 19 61 0 -4 43 689 -450 488
-346 510 -361 525 -343 50 62 911 1283 910 1290 -2 4 -83 31 -181 59 -191 55
-219 68 -250 117 -40 64 -12 181 53 215 42 23 1232 390 1266 391 18 1 47 -5
65 -13z"/>
</g>
</svg>
